# xmcd
#
# Track frame offsets:
#	182
#	12712
#	25240
#	37277
#	52447
#	65512
#	76267
#	87132
#	100937
#
# Disc length: 1489 seconds
#
# Revision: 0
# Processed by: cddbd v1.5.1PL2 Copyright (c) Steve Scherf et al.
# Submitted via: dBpowerAMP V4.0
#
DISCID=7a05cf09
DTITLE=Various Artist - Country Gospe
DYEAR=1900
DGENRE=
TTITLE0=Hank Williams Jr.-Dear Brother
TTITLE1=The Statler Brothers-Sweet By And By
TTITLE2=Roy Acuff-Take My Hand Precious Lord
TTITLE3=Tom T. Hall-Me And Jesus
TTITLE4=Hank Williams Jr.-Jesus Don't Give Up On Me
TTITLE5=Hank Williams Jr.-House Of Gofd
TTITLE6=The Statler Brothers-The Lord's Prayer
TTITLE7=Jerry Lee Lewis-He looked Beyond My Fault
TTITLE8=Roy Acuff-Hold to God's Unchanging Ways
EXTD=It is a country gospel cd.
EXTT0=
EXTT1=
EXTT2=
EXTT3=
EXTT4=
EXTT5=
EXTT6=
EXTT7=
EXTT8=
PLAYORDER=
